<svg width="1190" height="314" viewBox="0 0 1190 314" fill="none" xmlns="http://www.w3.org/2000/svg">
<path d="M1000.99 89.2305C962.93 89.2305 935.534 112.48 926.527 121.986C909.083 100.842 887.944 89.2305 857.842 89.2305C820.35 89.2305 796.08 110.37 787.073 120.374L779.678 100.299C778.636 97.1467 775.462 94.5153 770.671 94.5153H751.144C745.885 94.5153 741.139 98.7317 741.139 104.542V295.758C741.139 301.016 745.881 305.785 751.144 305.785H793.899C799.21 305.785 803.948 301.021 803.948 295.758V179.554C809.255 165.284 821.913 146.277 848.315 146.277C875.282 146.277 887.419 163.695 887.419 191.165V295.754C887.419 301.012 891.64 305.78 897.467 305.78H937.093C942.355 305.78 947.097 301.016 947.097 295.754V188.534C947.097 179.033 946.625 168.459 946.625 168.459C946.625 168.459 960.329 146.277 990.947 146.277C1017.35 146.277 1030.57 163.695 1030.57 191.165V295.754C1030.57 301.012 1034.79 305.78 1040.62 305.78H1083.38C1089.21 305.78 1093.43 301.016 1093.43 295.754V194.861C1093.43 139.403 1068.63 89.2305 1000.99 89.2305Z" fill="#5075DC"/>
<path d="M1152.53 72.9058C1173.11 72.9058 1189.5 56.526 1189.5 36.4507C1189.5 16.3799 1173.11 0 1152.53 0C1132.44 0 1116.6 16.3799 1116.6 36.4507C1116.6 56.526 1132.44 72.9058 1152.53 72.9058Z" fill="#5075DC"/>
<path d="M1175.24 94.5156H1131.39C1126.13 94.5156 1121.34 98.732 1121.34 104.542V295.758C1121.34 301.017 1126.13 305.785 1131.39 305.785H1175.24C1180.55 305.785 1185.28 301.021 1185.28 295.758V104.542C1185.28 98.732 1180.55 94.5156 1175.24 94.5156Z" fill="#5075DC"/>
<path d="M358.948 83.6875C293.653 83.6875 246.063 131.238 246.063 195.34C246.063 258.647 293.653 305.787 358.948 305.787C425.05 305.787 472.64 258.647 472.64 195.34C472.64 131.238 425.05 83.6875 358.948 83.6875ZM358.948 254.215C324.272 254.215 300.506 228.404 300.506 195.34C300.506 161.476 324.276 135.264 358.948 135.264C394.401 135.264 418.198 161.481 418.198 195.34C418.198 228.404 394.405 254.215 358.948 254.215Z" fill="#5075DC"/>
<path d="M604.581 83.6875C539.287 83.6875 491.723 131.238 491.723 195.34C491.723 258.647 539.287 305.787 604.581 305.787C670.705 305.787 718.247 258.647 718.247 195.34C718.247 131.238 670.705 83.6875 604.581 83.6875ZM604.581 254.215C569.905 254.215 546.139 228.404 546.139 195.34C546.139 161.476 569.909 135.264 604.581 135.264C640.06 135.264 663.831 161.481 663.831 195.34C663.831 228.404 640.06 254.215 604.581 254.215Z" fill="#5075DC"/>
<path d="M195.561 204.803C221.513 179.584 233.102 142.85 224.784 103.72C212.674 46.5537 164.655 11.0743 107.207 15.6703C97.4671 16.2399 87.9614 18.1163 78.8841 21.145C22.1683 38.7346 -9.30669 92.0111 3.21 150.833C16.3625 212.719 72.6942 248.98 136.571 235.421C137.944 235.138 139.295 234.803 140.624 234.472L184.28 301.665C190.488 311.996 202.788 315.978 211.773 310.623L232.722 298.031C241.729 292.653 243.985 279.925 237.795 269.594L195.561 204.803ZM171.574 141.689C162.594 172.312 130.955 190.63 99.7629 182.785C78.266 177.403 62.4601 161.005 56.7956 141.098C56.6763 140.577 56.5351 140.082 56.4379 139.513C49.3738 106.404 67.1974 75.852 101.14 68.5981C135.816 61.2293 164.536 81.9404 171.574 115.049C173.516 124.268 173.472 133.296 171.574 141.689Z" fill="#5075DC"/>
<path d="M14.0391 225.32V296.186C14.0391 301.471 18.8029 306.191 24.0877 306.191H67.9337C73.1964 306.191 77.9338 301.476 77.9338 296.186V258.526C77.9338 258.526 78.053 252.46 69.735 250.42C51.9114 245.992 29.8008 231.983 19.9199 220.274C14.0391 213.285 14.0391 225.32 14.0391 225.32Z" fill="#5075DC"/>
</svg>
